<svg id="Слой_1" data-name="Слой 1" xmlns="http://www.w3.org/2000/svg" viewBox="0 0 523.72 148.04"><defs><style>.cls-1{fill:#ffb624;}</style></defs><title>11111</title><path d="M106.93,99.79h-13V48.58q0-6.28.78-15.39h-.22a52.39,52.39,0,0,1-2.16,7.45L68.69,99.79h-9L36,41.08a56.19,56.19,0,0,1-2.1-7.89h-.22q.45,4.74.44,15.5v51.1H22V20.66H40.44l20.8,52.7a78.63,78.63,0,0,1,3.09,9h.28q2-6.23,3.31-9.26L89.1,20.66h17.83Z"/><path d="M173.91,43.29l-25.49,65.54q-7.95,17.55-22.29,17.55a26.58,26.58,0,0,1-6.73-.72V115a17.66,17.66,0,0,0,5.51,1q7.17,0,10.71-7.07l3.8-9.26L117,43.29h14.18l13.46,41.05q.22.76,1,4.08h.28c.18-.85.51-2.17,1-4L161,43.29Z"/><path d="M221,116.17h-46.9v-6.56H221Z"/><path class="cls-1" d="M227.1,96.64V83.12a20.51,20.51,0,0,0,4.33,3,34.08,34.08,0,0,0,5.32,2.24,43.26,43.26,0,0,0,5.63,1.4,30.22,30.22,0,0,0,5.19.5q8.28,0,12.33-2.76a9.08,9.08,0,0,0,4.06-8,8.72,8.72,0,0,0-1.36-4.88,14.13,14.13,0,0,0-3.78-3.78,38.45,38.45,0,0,0-5.71-3.28q-3.29-1.58-7-3.29-4-2.14-7.51-4.36a32.6,32.6,0,0,1-6-4.88,20.54,20.54,0,0,1-4-6A19.73,19.73,0,0,1,227,41.08a18.22,18.22,0,0,1,2.51-9.68,21.24,21.24,0,0,1,6.62-6.79,30.08,30.08,0,0,1,9.36-4,44.09,44.09,0,0,1,10.7-1.3q12.42,0,18.1,2.81v13q-6.74-4.86-17.33-4.86a30.85,30.85,0,0,0-5.82.56A16.89,16.89,0,0,0,246,32.64a11.21,11.21,0,0,0-3.73,3.25,8,8,0,0,0-1.43,4.8,9,9,0,0,0,1.1,4.58,11.72,11.72,0,0,0,3.23,3.53,32.32,32.32,0,0,0,5.18,3.12c2.05,1,4.41,2.11,7.09,3.28q4.14,2.16,7.81,4.53A36.83,36.83,0,0,1,271.71,65a23.1,23.1,0,0,1,4.41,6.37,18.67,18.67,0,0,1,1.63,8,18.71,18.71,0,0,1-9,16.89,29,29,0,0,1-9.46,3.75A53.53,53.53,0,0,1,248,101.11a48.71,48.71,0,0,1-4.88-.3c-1.93-.21-3.91-.5-5.93-.89a53,53,0,0,1-5.74-1.4A18.26,18.26,0,0,1,227.1,96.64Z"/><path class="cls-1" d="M317.37,99.18a22.25,22.25,0,0,1-9.88,1.87q-16.44,0-16.44-15.78V53.33h-9.44v-10h9.44V30.21l12.8-3.64V43.29h13.52v10H303.85V81.58c0,3.35.6,5.74,1.82,7.17s3.23,2.15,6.07,2.15A8.82,8.82,0,0,0,317.37,89Z"/><path class="cls-1" d="M377.67,99.79h-12.8V90.85h-.22q-5.56,10.26-17.32,10.26-20,0-20-24.06V43.29h12.8V75.73Q340.1,91,351.85,91a11.85,11.85,0,0,0,9.35-4.2q3.68-4.19,3.67-11V43.29h12.8Z"/><path class="cls-1" d="M445.7,99.79H432.9v-9.6h-.22q-6.18,10.92-19,10.92-10.42,0-16.69-7.59t-6.27-20.66q0-14,6.93-22.46T416.07,42q11.43,0,16.61,9.16h.22v-35h12.8ZM433.07,74V66.57a14.43,14.43,0,0,0-3.92-10.21,13.08,13.08,0,0,0-10-4.19,13.44,13.44,0,0,0-11.28,5.35q-4.11,5.35-4.11,14.84,0,8.61,4,13.6a12.83,12.83,0,0,0,10.62,5A13.3,13.3,0,0,0,429,86.13,18.2,18.2,0,0,0,433.07,74Z"/><path class="cls-1" d="M511.36,43.29l-25.49,65.54q-7.94,17.55-22.29,17.55a26.63,26.63,0,0,1-6.73-.72V115a17.67,17.67,0,0,0,5.52,1q7.17,0,10.7-7.07l3.81-9.26L454.42,43.29H468.6l13.47,41.05q.21.76,1,4.08h.28c.18-.85.51-2.17,1-4l14.12-41.16Z"/></svg>