<?xml version="1.0" encoding="utf-8"?>
<!-- Generator: Adobe Illustrator 24.0.2, SVG Export Plug-In . SVG Version: 6.00 Build 0)  -->
<svg version="1.1" id="Слой_1" xmlns="http://www.w3.org/2000/svg" xmlns:xlink="http://www.w3.org/1999/xlink" x="0px" y="0px"
	 viewBox="0 0 576.7 167.6" style="enable-background:new 0 0 576.7 167.6;" xml:space="preserve">
<style type="text/css">
	.st0{fill:none;}
	.st1{enable-background:new    ;}
	.st2{fill:#FFB624;}
</style>
<rect x="26.5" y="29" class="st0" width="523.7" height="151.5"/>
<g class="st1">
	<path d="M126.4,112.7h-17.6V65.3c0-5.1,0.2-10.8,0.7-16.9H109c-0.9,4.9-1.7,8.3-2.5,10.5L88,112.7H73.4L54.6,59.4
		c-0.5-1.4-1.3-5.1-2.5-11h-0.5c0.5,7.8,0.7,14.6,0.7,20.5v43.8H36.3V33.5h26.1l16.2,46.9c1.3,3.8,2.2,7.5,2.8,11.3h0.3
		c1-4.4,2-8.2,3.1-11.4L101,33.5h25.4V112.7z"/>
	<path d="M196.5,56.2l-23,61c-5.5,14.7-13.8,22-24.9,22c-4.2,0-7.7-0.5-10.4-1.4v-13.9c2.3,1.4,4.8,2,7.6,2c4.5,0,7.6-2.1,9.4-6.3
		l3-7l-23-56.4h19.3L165,90.5c0.7,2.1,1.2,4.7,1.5,7.6h0.2c0.3-2.1,0.9-4.6,1.8-7.4l10.6-34.5H196.5z"/>
	<path d="M243.1,129.1h-46.9v-6.6h46.9V129.1z"/>
</g>
<g class="st1">
	<path class="st2" d="M248.5,109.6V92c3.2,2.7,6.7,4.7,10.4,6c3.8,1.3,7.5,2,11.4,2c2.2,0,4.2-0.2,5.9-0.6c1.7-0.4,3.1-1,4.2-1.7
		c1.1-0.7,2-1.6,2.5-2.5s0.8-2,0.8-3.2c0-1.5-0.4-2.9-1.3-4.1c-0.9-1.2-2.1-2.3-3.6-3.4c-1.5-1-3.3-2-5.4-3c-2.1-1-4.4-1.9-6.8-2.9
		c-6.2-2.6-10.8-5.7-13.8-9.4c-3-3.7-4.6-8.2-4.6-13.5c0-4.1,0.8-7.7,2.5-10.6s3.9-5.4,6.8-7.3c2.9-1.9,6.2-3.3,9.9-4.2
		c3.8-0.9,7.7-1.4,11.9-1.4c4.1,0,7.8,0.2,11,0.7c3.2,0.5,6.1,1.3,8.8,2.3v16.5c-1.3-0.9-2.8-1.7-4.3-2.4c-1.6-0.7-3.2-1.3-4.8-1.7
		c-1.7-0.5-3.3-0.8-4.9-1c-1.6-0.2-3.2-0.3-4.7-0.3c-2,0-3.9,0.2-5.5,0.6c-1.7,0.4-3.1,0.9-4.2,1.6c-1.1,0.7-2,1.5-2.6,2.5
		c-0.6,1-0.9,2.1-0.9,3.3c0,1.3,0.3,2.5,1,3.6c0.7,1,1.7,2,3,3c1.3,0.9,2.9,1.9,4.7,2.8c1.8,0.9,3.9,1.8,6.2,2.8
		c3.2,1.3,6,2.7,8.5,4.2c2.5,1.5,4.7,3.2,6.5,5c1.8,1.9,3.2,4,4.1,6.4c1,2.4,1.4,5.2,1.4,8.4c0,4.4-0.8,8.1-2.5,11.1
		c-1.7,3-3.9,5.4-6.8,7.3c-2.9,1.9-6.2,3.2-10,4c-3.8,0.8-7.8,1.2-12.1,1.2c-4.3,0-8.5-0.4-12.4-1.1
		C254.7,112.2,251.3,111.1,248.5,109.6z"/>
	<path class="st2" d="M345.1,112c-2.6,1.4-6.5,2-11.6,2c-12.3,0-18.4-6.4-18.4-19.1V69h-9.2V56.2h9.2V44l17.4-5v17.2h12.7V69h-12.7
		v22.8c0,5.9,2.3,8.8,7,8.8c1.8,0,3.7-0.5,5.7-1.6V112z"/>
	<path class="st2" d="M408.6,112.7h-17.4v-8.6h-0.3c-4.3,6.7-10.1,10-17.3,10c-13.1,0-19.6-7.9-19.6-23.8V56.2h17.4v32.6
		c0,8,3.2,12,9.5,12c3.1,0,5.6-1.1,7.5-3.3s2.8-5.2,2.8-8.9V56.2h17.4V112.7z"/>
	<path class="st2" d="M478.5,112.7h-17.4v-7.8h-0.2c-4,6.1-9.8,9.2-17.5,9.2c-7.1,0-12.7-2.5-17-7.5c-4.3-5-6.5-11.9-6.5-20.9
		c0-9.3,2.4-16.8,7.1-22.5c4.7-5.6,11-8.4,18.7-8.4c7.3,0,12.4,2.6,15.2,7.8h0.2V29h17.4V112.7z M461.4,85.2v-4.2
		c0-3.7-1.1-6.7-3.2-9.2c-2.1-2.4-4.9-3.6-8.3-3.6c-3.9,0-6.9,1.5-9,4.6c-2.2,3-3.3,7.2-3.3,12.5c0,5,1,8.8,3.1,11.5
		c2.1,2.7,5,4,8.7,4c3.5,0,6.4-1.4,8.6-4.2C460.3,93.6,461.4,89.9,461.4,85.2z"/>
	<path class="st2" d="M547,56.2l-23,61c-5.5,14.7-13.8,22-24.9,22c-4.2,0-7.7-0.5-10.4-1.4v-13.9c2.3,1.4,4.8,2,7.6,2
		c4.5,0,7.6-2.1,9.4-6.3l3-7l-23-56.4H505l10.5,34.4c0.7,2.1,1.2,4.7,1.5,7.6h0.2c0.3-2.1,0.9-4.6,1.8-7.4l10.6-34.5H547z"/>
</g>
</svg>
